#N canvas 1 77 450 300 10;
#X obj 138 193 noteout 1;
#X obj 251 208 ctlout 1;
#X obj 240 153 makenote 100 200;
#X floatatom 244 83 5 0 0 0 - - -;
#X symbolatom 151 63 10 0 0 0 - - -;
#X msg 60 71 33;
#X msg 68 97 35;
#X msg 80 123 37;
#X msg 100 76 38;
#X msg 113 98 40;
#X msg 157 95 42;
#X obj 96 11 + 1;
#X obj 119 23 % 2;
#X obj 22 6 tgl 15 0 empty empty empty 17 7 0 10 -262144 -1 -1 1 1
;
#X obj 85 51 sel 0 1;
#X floatatom 16 57 5 0 0 0 - - -;
#X obj 51 29 int 0;
#X obj 117 137 makenote 120 200;
#X obj 47 -26 metro 500;
#X floatatom 112 -30 5 0 0 0 - - -;
#X connect 2 0 1 0;
#X connect 2 1 1 1;
#X connect 3 0 2 0;
#X connect 5 0 17 0;
#X connect 6 0 17 0;
#X connect 7 0 17 0;
#X connect 8 0 17 0;
#X connect 9 0 17 0;
#X connect 10 0 17 0;
#X connect 11 0 12 0;
#X connect 12 0 16 1;
#X connect 13 0 18 0;
#X connect 14 0 7 0;
#X connect 14 0 6 0;
#X connect 14 1 8 0;
#X connect 14 1 9 0;
#X connect 16 0 11 0;
#X connect 16 0 14 0;
#X connect 16 0 15 0;
#X connect 17 0 0 0;
#X connect 17 1 0 1;
#X connect 18 0 16 0;
#X connect 19 0 18 1;
