#N canvas 1 77 329 126 10;
#X obj 33 22 notein;
#X obj 17 49 pack f f f;
#X obj 14 73 print note;
#X obj 97 46 pack f f f;
#X obj 94 70 print ctl;
#X obj 113 19 ctlin;
#X obj 172 70 print pgm;
#X obj 191 19 pgmin;
#X obj 264 18 bendin;
#X obj 245 69 print bend;
#X obj 248 45 pack f f;
#X obj 175 46 pack f f;
#X connect 0 0 1 0;
#X connect 0 1 1 1;
#X connect 0 2 1 2;
#X connect 1 0 2 0;
#X connect 3 0 4 0;
#X connect 5 0 3 0;
#X connect 5 1 3 1;
#X connect 5 2 3 2;
#X connect 7 0 11 0;
#X connect 7 1 11 1;
#X connect 8 0 10 0;
#X connect 8 1 10 1;
#X connect 10 0 9 0;
#X connect 11 0 6 0;
