#N canvas 400 417 390 285 10;
#X obj 23 44 notein;
#X obj 120 69 ctlin;
#X obj 247 87 bendin;
#X obj 260 158 netsend 654323 1;
#X obj 119 138 netsend 654322 1;
#X obj 0 129 netsend 654321 1;
#X msg -3 19 connect metalblade 654321;
#X msg 103 46 connect metalblade 654322;
#X msg 200 67 connect metalblade 654323;
#X obj 92 3 loadbang;
#X obj 75 3 bng 15 250 50 0 empty empty empty 17 7 0 10 -262144 -1
-1;
#X obj 264 113 pack f f;
#X msg 264 137 send \$1 \$2;
#X obj 260 173 tgl 15 0 empty empty empty 17 7 0 10 -262144 -1 -1 0
1;
#X obj 118 150 tgl 15 0 empty empty empty 17 7 0 10 -262144 -1 -1 0
1;
#X obj 3 140 tgl 15 0 empty empty empty 17 7 0 10 -262144 -1 -1 0 1
;
#X obj 19 69 pack f f f;
#X msg 19 90 send \$1 \$2 \$3;
#X obj 136 99 pack f f f;
#X msg 136 120 send \$1 \$2 \$3;
#X text 8 187 if you load me up using the -alsamidi flag;
#X text 61 203 you can connect your midi instruments;
#X text 53 216 to this midi puredata midi input;
#X text 21 231 I will then transmit it to metalblade;
#X text 7 242 metalblade will serve your midi to a synthesizer;
#X connect 0 0 16 0;
#X connect 0 1 16 1;
#X connect 0 2 16 2;
#X connect 1 0 18 0;
#X connect 1 1 18 1;
#X connect 1 2 18 2;
#X connect 2 0 11 0;
#X connect 2 1 11 1;
#X connect 3 0 13 0;
#X connect 4 0 14 0;
#X connect 5 0 15 0;
#X connect 6 0 5 0;
#X connect 7 0 4 0;
#X connect 8 0 3 0;
#X connect 9 0 7 0;
#X connect 9 0 8 0;
#X connect 9 0 6 0;
#X connect 10 0 9 0;
#X connect 11 0 12 0;
#X connect 12 0 3 0;
#X connect 16 0 17 0;
#X connect 17 0 5 0;
#X connect 18 0 19 0;
#X connect 19 0 4 0;
